<svg id="Layer_1" height="512" viewBox="0 0 64 64" width="512" xmlns="http://www.w3.org/2000/svg" xmlns:xlink="http://www.w3.org/1999/xlink"><pattern id="New_Pattern_Swatch_19" height="23.881" overflow="visible" patternUnits="userSpaceOnUse" viewBox="0 -23.881 23.936 23.881" width="23.936" x="-672" y="-504"><g><path d="m0 0h23.936v-23.881h-23.936z" fill="none"/><path d="m23.936 0h-23.936v-23.881h23.936z" fill="#ef6183"/></g></pattern><pattern id="New_Pattern_Swatch_21" height="23.881" overflow="visible" patternUnits="userSpaceOnUse" viewBox="0 -23.881 23.936 23.881" width="23.936" x="-672" y="-504"><g><path d="m0 0h23.936v-23.881h-23.936z" fill="none"/><path d="m23.936 0h-23.936v-23.881h23.936z" fill="#e04767"/></g></pattern><pattern id="New_Pattern_Swatch_23" height="23.881" overflow="visible" patternUnits="userSpaceOnUse" viewBox="0 -23.881 23.936 23.881" width="23.936" x="-672" y="-504"><g><path d="m0 0h23.936v-23.881h-23.936z" fill="none"/><path d="m23.936 0h-23.936v-23.881h23.936z" fill="#f7d8a4"/></g></pattern><pattern id="New_Pattern_Swatch_28" height="23.881" overflow="visible" patternUnits="userSpaceOnUse" viewBox="0 -23.881 23.936 23.881" width="23.936" x="-672" y="-504"><g><path d="m0 0h23.936v-23.881h-23.936z" fill="none"/><path d="m23.936 0h-23.936v-23.881h23.936z" fill="#788d9a"/></g></pattern><g><g fill="url(#New_Pattern_Swatch_28)"><path d="m37.783 62.592c.518.868 1.496 1.408 2.551 1.408h6.396c1.055 0 2.032-.54 2.551-1.408l.463-.775h-12.425z"/><path d="m34.953 58.219c0 1.107.871 2.009 1.968 2.06h13.222c1.097-.051 1.968-.953 1.968-2.06v-1.046h-17.158z"/><path d="m34.953 52.018h17.158v3.106h-17.158z"/></g><path d="m54.161 56.251c.01-.031.01-.072.01-.102 0-.031 0-.072-.01-.103z" fill="#010101"/><path d="m57.338 5.443c-4.151-3.874-9.573-5.791-15.272-5.391-2.317.164-4.612.738-6.744 1.712 3.505.923 6.826 2.768 9.573 5.514 4.049 4.049 6.273 9.42 6.273 15.139s-2.224 11.09-6.273 15.139c-2.081 2.091-4.5 3.649-7.072 4.694-1.22.492-2.47.861-3.741 1.117.605 1.578 1.179 3.464 1.179 5.033v1.568h16.553v-1.507c0-3.772 3.208-10.69 6.857-14.801 3.29-3.71 5.104-8.476 5.104-13.427 0-5.585-2.347-10.977-6.437-14.79z" fill="url(#New_Pattern_Swatch_23)"/><path d="m47.652 29.827c.964-2.316 1.466-4.828 1.466-7.41 0-5.166-2.019-10.035-5.668-13.683-3.772-3.772-8.733-5.658-13.694-5.658-4.951 0-9.911 1.886-13.683 5.658-7.544 7.544-7.544 19.823 0 27.367.922.922 1.917 1.732 2.962 2.439 4.008 2.665 8.805 3.68 13.407 3.044.031-.01.062-.01.092-.01 3.997-.584 7.851-2.409 10.916-5.473 1.824-1.825 3.239-3.957 4.202-6.274zm-17.886 9.092c-4.233 0-8.456-1.609-11.674-4.828-6.447-6.437-6.447-16.912 0-23.349 6.437-6.437 16.912-6.437 23.349 0s6.437 16.912 0 23.349c-3.219 3.219-7.452 4.828-11.675 4.828z" fill="url(#New_Pattern_Swatch_21)"/><path d="m39.985 12.188c-2.819-2.819-6.519-4.223-10.219-4.223-3.71 0-7.411 1.404-10.229 4.223-5.637 5.637-5.637 14.821 0 20.458s14.811 5.637 20.448 0c5.638-5.637 5.638-14.821 0-20.458z" fill="url(#New_Pattern_Swatch_19)"/><path d="m12.598 35.188-10.321 9.133c-1.271 1.127-2.019 2.511-2.05 3.792-.031.984.359 1.896 1.148 2.685.799.789 1.712 1.189 2.706 1.158 1.281-.041 2.655-.789 3.793-2.05l9.122-10.311c-.83-.605-1.62-1.292-2.368-2.04-.749-.748-1.425-1.537-2.03-2.367z" fill="url(#New_Pattern_Swatch_21)"/></g></svg>