<svg id="Layer_1" enable-background="new 0 0 512 512" viewBox="0 0 512 512" xmlns="http://www.w3.org/2000/svg"><g><path d="m487.3 118.6c0 36.1-16.3 68.4-41.9 89.9-18.6 15.7-29.1 39.2-29.1 63.4v15.1h-25v-15.1c0-24.2 10.4-47.7 29.1-63.4 78.8-65.8 39.1-196.2-63-206.7 67.5-8.1 130.6 47.1 129.9 116.8z" fill="#fade98"/><path d="m462.3 118.6c0 36.1-16.3 68.4-41.9 89.9-18.7 15.7-29.1 39.2-29.1 63.4v15.1h-68v-15.1c0-24.1-10.2-47.6-28.9-63.3-26.8-22.7-42.4-55.2-42-91.8.2-53.3 39.9-102 92.5-113 61.4-9.2 118.8 53.5 117.4 114.8z" fill="#ffe8b6"/><path d="m444.3 112.1h-18.1c-1.5-6.3-4-12.2-7.3-17.5l12.8-12.8c1-1 1-2.6 0-3.6l-14.9-14.9c-1-1-2.6-1-3.6 0l-12.8 12.8c-5.4-3.3-11.3-5.8-17.6-7.2v-18.1c0-1.4-1.1-2.5-2.6-2.5h-21.1c-1.4 0-2.5 1.1-2.5 2.5v18.1c-6.3 1.5-12.2 4-17.5 7.3l-12.8-12.8c-1-1-2.6-1-3.6 0l-14.9 14.9c-1 1-1 2.6 0 3.6l12.8 12.8c-3.3 5.3-5.8 11.2-7.2 17.6h-18.1c-1.4 0-2.5 1.1-2.5 2.5v21.1c0 1.4 1.1 2.5 2.6 2.5h18.1c1.5 6.3 4 12.2 7.3 17.5l-12.8 12.8c-1 1-1 2.6 0 3.6l14.9 14.9c1 1 2.6 1 3.6 0l12.8-12.8c5.3 3.3 11.2 5.8 17.6 7.2v18.1c0 1.4 1.1 2.5 2.5 2.5h21.1c1.4 0 2.5-1.1 2.5-2.6v-18.1c6.3-1.5 12.2-4 17.5-7.3l12.8 12.8c1 1 2.6 1 3.6 0l14.9-14.9c1-1 1-2.6 0-3.6l-12.8-12.7c3.3-5.3 5.8-11.2 7.2-17.6h18.1c1.4 0 2.5-1.1 2.5-2.5v-21.1c0-1.4-1.1-2.5-2.5-2.5zm-74.4 42.2c-38.3-1.1-38.4-56.7-.1-58 38.3 1.1 38.4 56.7.1 58z" fill="#f47090"/><path d="m109.5 48.3c-31 0-56.1 25.1-56.1 56.1v315.3c-17.2 7.5-28.7 24.3-28.7 43.7v-359c0-30.9 25.1-56.1 56.1-56.1h28.7z" fill="#f7d4c6"/><path d="m358 376.1v39.7h-285.7c-6.8 0-13.2 1.4-19 3.9v-315.3c0-30.9 25.1-56.1 56.1-56.1h166.4c-31.2 39.4-30.8 101-.7 139.9 5.5 7.5 12 14.4 19.1 20.4 18.7 15.7 28.9 39.2 28.9 63.3v15.1h3.7c-28 .5-27 45.9 1 45-1.7 20.3 10.7 39.6 30.2 44.1z" fill="#fce4db"/><path d="m433 306.7v5.5c0 10.9-8.9 19.7-19.7 19.7h-20.7c10.9 0 19.8-8.8 19.8-19.7v-5.5c0-10.9-8.9-19.7-19.8-19.7h20.7c10.8 0 19.7 8.8 19.7 19.7z" fill="#cbcbf7"/><path d="m412.4 306.7v5.5c0 10.9-8.9 19.7-19.8 19.7h-66.1c-10.6 0-19.9-8.7-19.8-19.7v-5.5c0-11 9-19.7 19.8-19.7h66.1c10.9 0 19.8 8.8 19.8 19.7z" fill="#e6e5f7"/><g fill="#f47090"><path d="m344.8 287v16.2c0 4.4-4.1 6.9-8.2 6.4-3.5 0-6.3-2.9-6.3-6.4v-16.2z"/><path d="m377.1 287v16.2c0 4.4-4 6.9-8.1 6.4-3.5 0-6.4-2.9-6.4-6.4v-16.2z"/><path d="m409.4 287v16.2c0 4.4-4.1 6.9-8.2 6.4-3.5 0-6.3-2.9-6.3-6.4v-16.2z"/></g><path d="m414.5 332v9.2c0 19.9-16.1 36-36.1 36-.7 0-15.8 0-15.9-.1 19.1-.9 34.4-16.6 34.4-36v-9.1z" fill="#cbcbf7"/><path d="m397 332v9.2c0 19.4-15.3 35.1-34.4 36-19.2-.8-34.5-16.6-34.5-36v-9.2z" fill="#e6e5f7"/><path d="m55.5 446.6c-15 14.3-3.9 40.9 16.8 40.5h285.7v23.9h-285.7c-26.3 0-47.6-21.3-47.6-47.6s21.3-47.6 47.6-47.6h285.7v23.9h-285.7c-6.4 0-12.3 2.4-16.8 6.9z" fill="#f47090"/><path d="m334.1 439.7v47.5h-261.8c-31.4-1-31.4-46.6 0-47.5z" fill="#f3f3ff"/><g fill="#cbcbf7"><path d="m275.3 188.2h-183c-5.7 0-10.3-4.6-10.3-10.3v-50.8c0-5.7 4.6-10.3 10.3-10.3h160.2c-.5 26.8 8.1 51.5 22.8 71.4z"/><path d="m154.7 269.5h-71.4c-.8 0-1.4-.6-1.4-1.4v-46.9c0-.8.6-1.4 1.4-1.4h71.4c.8 0 1.4.6 1.4 1.4v46.9c.1.8-.6 1.4-1.4 1.4z"/><path d="m154.7 350.8h-71.4c-.8 0-1.4-.6-1.4-1.4v-46.9c0-.8.6-1.4 1.4-1.4h71.4c.8 0 1.4.6 1.4 1.4v46.9c.1.8-.6 1.4-1.4 1.4z"/></g></g></svg>